<?xml version="1.0"?><svg width="640" height="480" xmlns="http://www.w3.org/2000/svg">
 <!-- Created with SVG-edit - http://svg-edit.googlecode.com/ -->
 <title>bass drum</title>
 <g>
  <title>Layer 1</title>

  <circle id="svg_1" r="171.265625" cy="194" cx="270" stroke-width="5" stroke="#000000" fill="#ffffff"/>
  <path id="svg_3" d="m143,306l-54,66l59,-59" stroke-width="5" stroke="#000000" fill="#ffffff"/>
  <path transform="rotate(-84.4007, 430, 330)" id="svg_4" d="m454.5,297l-54,66l59,-59" stroke-width="5" stroke="#000000" fill="#ffffff"/>
  <circle id="svg_5" r="158.863281" cy="194.500005" cx="271.999998" stroke-width="5" stroke="#000000" fill="#ffffff"/>
  <path transform="rotate(101.987, 445.82, 196.99)" id="svg_7" d="m445.481323,191.250885c12.702362,-4.421539 2.117065,8.843048 11.643829,8.843048c9.526794,0 -23.287689,3.537231 -23.287689,3.537231c0,0 -1.058533,-7.074463 -1.058533,-7.074463c0,0 12.702393,-5.305817 12.702393,-5.305817z" stroke-width="5" stroke="#000000" fill="#ffffff"/>
  <path id="svg_8" transform="rotate(81.4912, 428.254, 110.816)" d="m427.935852,104.908813c11.916473,-4.551163 1.986115,9.102341 10.923431,9.102341c8.937347,0 -21.846863,3.64093 -21.846863,3.64093c0,0 -0.993042,-7.281868 -0.993042,-7.281868c0,0 11.916473,-5.461403 11.916473,-5.461403z" stroke-width="5" stroke="#000000" fill="#ffffff"/>
  <path id="svg_9" transform="rotate(47.4816, 362.254, 42.8164)" d="m361.93631,37.257252c11.899384,-4.282722 1.983246,8.565472 10.907776,8.565472c8.924561,0 -21.815582,3.426186 -21.815582,3.426186c0,0 -0.991638,-6.852371 -0.991638,-6.852371c0,0 11.899445,-5.139286 11.899445,-5.139286z" stroke-width="5" stroke="#000000" fill="#ffffff"/>
 </g>
</svg>