<?xml version="1.0" standalone="yes"?>
<svg width="512" height="512">
<path style="fill:#ffffff; stroke:none;" d="M0 0L0 182C5.57608 170.491 8.03918 159.334 16.4637 149C63.8271 90.8997 153.678 78 224 78C212.867 88.6539 197.162 104.14 183 110.351C172.297 115.045 157.507 113.901 146 116.424C112.811 123.704 78.4498 134.153 52 156.439L38.5201 171C11.6323 210.817 65.5953 242.693 97 254.938C171.479 283.979 263.498 283.747 339 258.333C368.77 248.312 410.915 222.772 401.239 185C399.398 177.814 395.251 171.936 391 166L321 186.859L244 209.859C238.581 211.419 219.076 220.267 219.662 208.018C219.903 202.972 227.206 201.441 231 200.053L270 186L431 127.808L478 110.947C486.025 108.014 494.586 104.398 502.985 108.214C516.139 114.19 508.642 128.062 499 133.004L471 142.025L423 156C427.013 168.68 433.921 179.05 433.921 193C433.921 243.916 388.594 274.802 345 289.333C267.841 315.053 180.409 312.435 103 290.141C63.7562 278.839 7.0964 249.236 1 204C-1.67907 210.385 0.179873 219.279 0.830247 226C3.73683 256.035 22.4866 277.297 47 293.645C54.2804 298.501 75.1184 305.087 78.3966 313.105L79 329L79 364L79 486C47.8548 477.028 4.02253 443.62 1 409C-2.50694 417.357 0 430.94 0 440L0 512L189 512L171 509.831L136 504.116C131.566 503.065 122.905 502.556 119.603 499.262C116.876 496.54 118 490.493 118 487L118 455L118 324C137.369 331.266 160.493 333.586 181 335.089C226.568 338.429 271.081 335.711 316 327L316 503C293.5 504.778 271.776 511 249 511C255.678 513.802 265.784 512 273 512L327 512L512 512L512 0L0 0z"/>
<path style="fill:#333333; stroke:none;" d="M375 116L375 114C354.284 105.375 332.902 91.8705 310 90L368 58.4244C386.201 48.1653 411.726 40.2116 426.895 25.7901C436.804 16.3696 432.006 -0.508057 417 1.31558C398.642 3.54651 377.636 22.6178 362 32L236 108.4L189 137C183.738 140.164 174.532 144.391 179.742 151.891C185.472 160.138 198.811 149.513 205 146L250 121.756C258.857 117.251 264.783 112.843 275 114.424C289.849 116.723 304.733 120.287 319 125.001C325.276 127.074 334.352 132.764 341 132.034C352.222 130.802 364.572 120.341 375 116M423 156L458 146.141C471.591 142.245 487.388 139.475 500 133.004C509.634 128.061 516.227 113.01 502.985 107.815C493.783 104.204 484.694 108.214 476 111.308L430 127.808L269 186L231 199.692C226.909 201.153 219.435 202.577 219.337 208.018C219.112 220.605 238.01 211.866 244 210.141L323 186.576L391 166C394.829 173.697 400.734 180.087 401.816 189C406.529 227.846 363.688 249.773 333 260C260.164 284.274 171.731 282.46 100 255.681C67.8477 243.677 10.1968 210.29 39.9244 170C61.709 140.476 103.567 126.072 138 118.424L183 110.737C195.613 106.147 216.096 88.7381 224 78C185.517 78 147.116 82.2942 110 92.8596C61.4104 106.691 -8.37036 142.314 0.300154 203C1.37066 210.493 4.36622 217.26 7.64043 224C12.13 233.242 18.7013 240.865 26 247.985C36.7905 258.512 49.7102 267.064 63 274.11C142.103 316.053 247.196 315.713 332 293.629C379.379 281.291 439.203 247.393 433.83 190C432.644 177.332 428.305 167.365 423 156M0 223L0 352C0 372.14 -3.72926 396.579 2.03627 416C9.80525 442.169 31.3946 460.437 54 474C61.6085 478.565 70.1628 484.425 79 486L79 363L79 328L78.3966 312.213C76.2907 307.372 67.3509 305.05 63 302.691C52.1028 296.784 41.4206 289.775 32 281.7C19.858 271.293 9.31073 258.258 4.0787 243L0 223M433 223C431.68 253.732 416.068 278.995 391 296.562L366 310.424C362.563 311.921 356.246 313.52 354.603 317.225L354 333L354 368L354 491C364.227 489.239 374.108 483.254 383 478.15C399.961 468.413 415.836 454.745 424.73 437C434.554 417.399 434 396.342 434 375L434 300L434 247C434 239.784 435.802 229.678 433 223M118 324L118 453L118 486C118 489.51 116.709 496.34 119.028 499.262C121.222 502.026 127.762 502.318 131 503.127L166 509.282C216.863 515.888 265.666 509.394 316 503L316 327C248.94 335.66 184.495 342.693 118 324z"/>
</svg>
